<svg width="168" height="48" viewBox="0 0 168 48" fill="none" xmlns="http://www.w3.org/2000/svg">
<rect width="168" height="48" rx="24" fill="#FF6F00"/>
<path d="M53.8943 27.52H49.0303L48.1343 30H46.5983L50.6303 18.912H52.3103L56.3263 30H54.7903L53.8943 27.52ZM53.4783 26.336L51.4623 20.704L49.4463 26.336H53.4783ZM59.5396 22.864C59.8382 22.3413 60.2756 21.9147 60.8516 21.584C61.4276 21.2533 62.0836 21.088 62.8196 21.088C63.6089 21.088 64.3182 21.2747 64.9476 21.648C65.5769 22.0213 66.0729 22.5493 66.4356 23.232C66.7982 23.904 66.9796 24.688 66.9796 25.584C66.9796 26.4693 66.7982 27.2587 66.4356 27.952C66.0729 28.6453 65.5716 29.184 64.9316 29.568C64.3022 29.952 63.5982 30.144 62.8196 30.144C62.0622 30.144 61.3956 29.9787 60.8196 29.648C60.2542 29.3173 59.8276 28.896 59.5396 28.384V30H58.0836V18.16H59.5396V22.864ZM65.4916 25.584C65.4916 24.9227 65.3582 24.3467 65.0916 23.856C64.8249 23.3653 64.4622 22.992 64.0036 22.736C63.5556 22.48 63.0596 22.352 62.5156 22.352C61.9822 22.352 61.4862 22.4853 61.0276 22.752C60.5796 23.008 60.2169 23.3867 59.9396 23.888C59.6729 24.3787 59.5396 24.9493 59.5396 25.6C59.5396 26.2613 59.6729 26.8427 59.9396 27.344C60.2169 27.8347 60.5796 28.2133 61.0276 28.48C61.4862 28.736 61.9822 28.864 62.5156 28.864C63.0596 28.864 63.5556 28.736 64.0036 28.48C64.4622 28.2133 64.8249 27.8347 65.0916 27.344C65.3582 26.8427 65.4916 26.256 65.4916 25.584ZM72.7201 30.144C71.8987 30.144 71.1521 29.9573 70.4801 29.584C69.8187 29.2107 69.2961 28.6827 68.9121 28C68.5387 27.3067 68.3521 26.5067 68.3521 25.6C68.3521 24.704 68.5441 23.9147 68.9281 23.232C69.3227 22.5387 69.8561 22.0107 70.5281 21.648C71.2001 21.2747 71.9521 21.088 72.7841 21.088C73.6161 21.088 74.3681 21.2747 75.0401 21.648C75.7121 22.0107 76.2401 22.5333 76.6241 23.216C77.0187 23.8987 77.2161 24.6933 77.2161 25.6C77.2161 26.5067 77.0134 27.3067 76.6081 28C76.2134 28.6827 75.6747 29.2107 74.9921 29.584C74.3094 29.9573 73.5521 30.144 72.7201 30.144ZM72.7201 28.864C73.2427 28.864 73.7334 28.7413 74.1921 28.496C74.6507 28.2507 75.0187 27.8827 75.2961 27.392C75.5841 26.9013 75.7281 26.304 75.7281 25.6C75.7281 24.896 75.5894 24.2987 75.3121 23.808C75.0347 23.3173 74.6721 22.9547 74.2241 22.72C73.7761 22.4747 73.2907 22.352 72.7681 22.352C72.2347 22.352 71.7441 22.4747 71.2961 22.72C70.8587 22.9547 70.5067 23.3173 70.2401 23.808C69.9734 24.2987 69.8401 24.896 69.8401 25.6C69.8401 26.3147 69.9681 26.9173 70.2241 27.408C70.4907 27.8987 70.8427 28.2667 71.2801 28.512C71.7174 28.7467 72.1974 28.864 72.7201 28.864ZM86.9064 21.232V30H85.4504V28.704C85.1731 29.152 84.7838 29.504 84.2824 29.76C83.7918 30.0053 83.2478 30.128 82.6504 30.128C81.9678 30.128 81.3544 29.9893 80.8104 29.712C80.2664 29.424 79.8344 28.9973 79.5144 28.432C79.2051 27.8667 79.0504 27.1787 79.0504 26.368V21.232H80.4904V26.176C80.4904 27.04 80.7091 27.7067 81.1464 28.176C81.5838 28.6347 82.1811 28.864 82.9384 28.864C83.7171 28.864 84.3304 28.624 84.7784 28.144C85.2264 27.664 85.4504 26.9653 85.4504 26.048V21.232H86.9064ZM91.1408 22.432V27.6C91.1408 28.0267 91.2315 28.3307 91.4128 28.512C91.5941 28.6827 91.9088 28.768 92.3568 28.768H93.4288V30H92.1168C91.3061 30 90.6981 29.8133 90.2928 29.44C89.8875 29.0667 89.6848 28.4533 89.6848 27.6V22.432H88.5488V21.232H89.6848V19.024H91.1408V21.232H93.4288V22.432H91.1408ZM110.771 18.928V30H109.315V21.744L105.635 30H104.611L100.915 21.728V30H99.4586V18.928H101.027L105.123 28.08L109.219 18.928H110.771ZM121.24 25.28C121.24 25.5573 121.224 25.8507 121.192 26.16H114.184C114.237 27.024 114.53 27.7013 115.064 28.192C115.608 28.672 116.264 28.912 117.032 28.912C117.661 28.912 118.184 28.768 118.6 28.48C119.026 28.1813 119.325 27.7867 119.496 27.296H121.064C120.829 28.1387 120.36 28.8267 119.656 29.36C118.952 29.8827 118.077 30.144 117.032 30.144C116.2 30.144 115.453 29.9573 114.792 29.584C114.141 29.2107 113.629 28.6827 113.256 28C112.882 27.3067 112.696 26.5067 112.696 25.6C112.696 24.6933 112.877 23.8987 113.24 23.216C113.602 22.5333 114.109 22.0107 114.76 21.648C115.421 21.2747 116.178 21.088 117.032 21.088C117.864 21.088 118.6 21.2693 119.24 21.632C119.88 21.9947 120.37 22.496 120.712 23.136C121.064 23.7653 121.24 24.48 121.24 25.28ZM119.736 24.976C119.736 24.4213 119.613 23.9467 119.368 23.552C119.122 23.1467 118.786 22.8427 118.36 22.64C117.944 22.4267 117.48 22.32 116.968 22.32C116.232 22.32 115.602 22.5547 115.08 23.024C114.568 23.4933 114.274 24.144 114.2 24.976H119.736Z" fill="white"/>
</svg>
