<svg width="165" height="42" viewBox="0 0 165 42" fill="none" xmlns="http://www.w3.org/2000/svg">
<path d="M9.16763 32.288C7.58896 32.288 6.20229 31.7973 5.00763 30.816C3.83429 29.8347 2.91696 28.4587 2.25563 26.688C1.61563 24.896 1.29563 22.784 1.29563 20.352C1.29563 18.0053 1.64763 15.9573 2.35163 14.208C3.07696 12.4373 4.03696 11.072 5.23163 10.112C6.44763 9.13067 7.79163 8.64 9.26363 8.64C10.1383 8.64 10.9063 8.72533 11.5676 8.896C12.229 9.04533 12.8156 9.248 13.3276 9.504C13.5836 9.65333 13.7116 9.87733 13.7116 10.176L13.8076 15.04C13.8076 15.4027 13.6796 15.584 13.4236 15.584C13.189 15.584 13.0396 15.4453 12.9756 15.168L12.6556 13.984C12.2076 12.32 11.685 11.168 11.0876 10.528C10.5116 9.888 9.81829 9.568 9.00763 9.568C7.51429 9.568 6.26629 10.496 5.26363 12.352C4.28229 14.1867 3.79163 16.8533 3.79163 20.352C3.79163 22.7413 4.03696 24.7573 4.52763 26.4C5.03963 28.0427 5.69029 29.28 6.47963 30.112C7.29029 30.944 8.14363 31.36 9.03963 31.36C9.99963 31.36 10.7676 31.0613 11.3436 30.464C11.941 29.8667 12.4423 28.7147 12.8476 27.008L13.2316 25.44C13.2956 25.12 13.4663 24.9813 13.7436 25.024C13.9783 25.0667 14.0956 25.248 14.0956 25.568L13.9676 30.752C13.9676 31.0507 13.829 31.2747 13.5516 31.424C13.0396 31.68 12.4316 31.8827 11.7276 32.032C11.045 32.2027 10.1916 32.288 9.16763 32.288ZM21.8866 32.288C20.7986 32.288 19.8173 31.9253 18.9426 31.2C18.0893 30.4533 17.4066 29.44 16.8946 28.16C16.3826 26.88 16.1266 25.4507 16.1266 23.872C16.1266 22.2933 16.3826 20.8747 16.8946 19.616C17.4066 18.3573 18.1 17.3547 18.9746 16.608C19.8493 15.8613 20.82 15.488 21.8866 15.488C22.9746 15.488 23.9453 15.8613 24.7986 16.608C25.6733 17.3547 26.3666 18.3573 26.8786 19.616C27.3906 20.8747 27.6466 22.2933 27.6466 23.872C27.6466 25.4507 27.3906 26.88 26.8786 28.16C26.388 29.44 25.7053 30.4533 24.8306 31.2C23.956 31.9253 22.9746 32.288 21.8866 32.288ZM21.8866 31.488C24.1053 31.488 25.2146 28.9493 25.2146 23.872C25.2146 18.816 24.1053 16.288 21.8866 16.288C19.668 16.288 18.5586 18.816 18.5586 23.872C18.5586 28.9493 19.668 31.488 21.8866 31.488ZM34.2451 32.288C33.3065 32.288 32.4638 31.968 31.7171 31.328C30.9918 30.6667 30.4265 29.76 30.0211 28.608C29.6158 27.4347 29.4131 26.08 29.4131 24.544C29.4131 22.752 29.6905 21.184 30.2451 19.84C30.7998 18.4747 31.5678 17.408 32.5491 16.64C33.5305 15.872 34.6398 15.488 35.8771 15.488C36.1758 15.488 36.4745 15.52 36.7731 15.584C37.0718 15.6267 37.3598 15.712 37.6371 15.84C37.9785 16.0107 38.1491 15.936 38.1491 15.616V11.52C38.1491 11.136 38.0851 10.8693 37.9571 10.72C37.8505 10.5707 37.6478 10.4853 37.3491 10.464L36.5171 10.368C36.2825 10.3253 36.1651 10.1973 36.1651 9.984C36.1651 9.77067 36.2825 9.64267 36.5171 9.6C37.1998 9.472 37.7438 9.32267 38.1491 9.152C38.5758 8.98133 38.9278 8.81067 39.2051 8.64C39.5465 8.42667 39.8025 8.32 39.9731 8.32C40.2078 8.32 40.3251 8.49067 40.3251 8.832V28.96C40.3251 29.856 40.5491 30.304 40.9971 30.304C41.2745 30.304 41.5305 30.1227 41.7651 29.76C41.9998 29.376 42.1171 28.736 42.1171 27.84C42.1171 27.4987 42.2558 27.328 42.5331 27.328C42.7891 27.328 42.9171 27.5093 42.9171 27.872C42.9171 29.4293 42.6505 30.56 42.1171 31.264C41.5838 31.9467 40.9758 32.288 40.2931 32.288C39.6745 32.288 39.2051 32.0853 38.8851 31.68C38.5651 31.2533 38.3518 30.752 38.2451 30.176C38.2238 30.0053 38.1491 29.92 38.0211 29.92C37.8931 29.8987 37.7758 29.9733 37.6691 30.144C37.0718 30.976 36.5278 31.5413 36.0371 31.84C35.5465 32.1387 34.9491 32.288 34.2451 32.288ZM34.9491 30.816C35.5038 30.816 36.0158 30.6347 36.4851 30.272C36.9758 29.888 37.3705 29.376 37.6691 28.736C37.9891 28.096 38.1491 27.3813 38.1491 26.592V19.392C38.1491 18.432 37.9251 17.6747 37.4771 17.12C37.0505 16.5653 36.4851 16.288 35.7811 16.288C34.5865 16.288 33.6158 16.992 32.8691 18.4C32.1438 19.7867 31.7811 21.6853 31.7811 24.096C31.7811 26.2933 32.0585 27.968 32.6131 29.12C33.1891 30.2507 33.9678 30.816 34.9491 30.816ZM46.7261 12.64C46.2781 12.64 45.8941 12.48 45.5741 12.16C45.2755 11.84 45.1261 11.4347 45.1261 10.944C45.1261 10.4533 45.2755 10.0587 45.5741 9.76C45.8941 9.44 46.2781 9.28 46.7261 9.28C47.1741 9.28 47.5475 9.44 47.8461 9.76C48.1448 10.0587 48.2941 10.4533 48.2941 10.944C48.2941 11.4347 48.1448 11.84 47.8461 12.16C47.5475 12.48 47.1741 12.64 46.7261 12.64ZM44.0381 32C43.7181 32 43.5581 31.8827 43.5581 31.648C43.5581 31.456 43.6968 31.328 43.9741 31.264L44.3581 31.2C44.8915 31.1147 45.2328 30.9867 45.3821 30.816C45.5315 30.624 45.6061 30.304 45.6061 29.856V19.104C45.6061 18.72 45.5421 18.464 45.4141 18.336C45.3075 18.1867 45.1048 18.0907 44.8061 18.048L44.1341 17.952C43.8568 17.9307 43.7181 17.8133 43.7181 17.6C43.7181 17.4293 43.8888 17.312 44.2301 17.248C44.8915 17.1413 45.4248 16.9707 45.8301 16.736C46.2355 16.5013 46.6301 16.2133 47.0141 15.872C47.2061 15.68 47.3661 15.584 47.4941 15.584C47.6861 15.584 47.7821 15.712 47.7821 15.968V29.856C47.7821 30.304 47.8461 30.624 47.9741 30.816C48.1021 31.008 48.3475 31.1253 48.7101 31.168L49.5101 31.264C49.7448 31.3067 49.8621 31.424 49.8621 31.616C49.8621 31.872 49.7021 32 49.3821 32H44.0381ZM51.1631 32C50.8431 32 50.6831 31.8827 50.6831 31.648C50.6831 31.456 50.8218 31.328 51.0991 31.264L51.4831 31.2C51.9311 31.1147 52.2191 30.9867 52.3471 30.816C52.4965 30.624 52.5711 30.304 52.5711 29.856V19.104C52.5711 18.72 52.5071 18.464 52.3791 18.336C52.2725 18.1867 52.0698 18.0907 51.7711 18.048L51.0991 17.952C50.8218 17.9307 50.6831 17.8133 50.6831 17.6C50.6831 17.4293 50.8538 17.312 51.1951 17.248C51.8565 17.1413 52.3578 16.9707 52.6991 16.736C53.0618 16.5013 53.4351 16.2133 53.8191 15.872C54.0111 15.68 54.1711 15.584 54.2991 15.584C54.4911 15.584 54.5871 15.712 54.5871 15.968V17.408C54.5871 17.6 54.6511 17.728 54.7791 17.792C54.9285 17.8347 55.0885 17.7707 55.2591 17.6C56.1125 16.7893 56.8591 16.2347 57.4991 15.936C58.1605 15.6373 58.8538 15.488 59.5791 15.488C60.5391 15.488 61.3071 15.8293 61.8831 16.512C62.4591 17.1733 62.7471 18.1547 62.7471 19.456V29.856C62.7471 30.304 62.8111 30.624 62.9391 30.816C63.0885 30.9867 63.3871 31.104 63.8351 31.168L64.5391 31.264C64.7738 31.3067 64.8911 31.4347 64.8911 31.648C64.8911 31.8827 64.7631 32 64.5071 32H59.1311C58.8325 32 58.6831 31.8827 58.6831 31.648C58.6831 31.4347 58.8005 31.3067 59.0351 31.264L59.4831 31.2C59.9311 31.136 60.2191 31.008 60.3471 30.816C60.4965 30.624 60.5711 30.304 60.5711 29.856V19.808C60.5711 18.7627 60.3791 18.0267 59.9951 17.6C59.6111 17.1733 59.0671 16.96 58.3631 16.96C57.6805 16.96 57.0618 17.1627 56.5071 17.568C55.9738 17.952 55.5471 18.4747 55.2271 19.136C54.9071 19.776 54.7471 20.4907 54.7471 21.28V29.856C54.7471 30.304 54.8111 30.624 54.9391 30.816C55.0885 31.008 55.3871 31.1253 55.8351 31.168L56.6991 31.264C56.9338 31.3067 57.0511 31.424 57.0511 31.616C57.0511 31.872 56.8911 32 56.5711 32H51.1631ZM70.9304 38.88C69.309 38.88 68.029 38.5493 67.0904 37.888C66.1517 37.248 65.6824 36.4693 65.6824 35.552C65.6824 35.168 65.7357 34.816 65.8424 34.496C65.949 34.1973 66.173 33.8453 66.5144 33.44C66.877 33.0347 67.421 32.512 68.1464 31.872C68.4024 31.6373 68.5304 31.424 68.5304 31.232C68.5304 31.0187 68.4024 30.8587 68.1464 30.752C67.3784 30.432 66.9197 30.0267 66.7704 29.536C66.621 29.024 66.8024 28.5547 67.3144 28.128L69.6184 26.144C69.8744 25.9307 69.8637 25.7493 69.5864 25.6C68.7117 25.1733 68.0184 24.512 67.5064 23.616C66.9944 22.72 66.7384 21.76 66.7384 20.736C66.7384 19.7547 66.9517 18.8693 67.3784 18.08C67.805 17.2907 68.381 16.6613 69.1064 16.192C69.8317 15.7227 70.6424 15.488 71.5384 15.488C72.0504 15.488 72.541 15.5733 73.0104 15.744C73.309 15.8507 73.4904 15.7547 73.5544 15.456C73.7464 14.6453 74.0984 14.016 74.6104 13.568C75.1437 13.0987 75.6664 12.864 76.1784 12.864C76.669 12.864 77.0637 13.0133 77.3624 13.312C77.6824 13.5893 77.8424 13.9413 77.8424 14.368C77.8424 14.7307 77.7357 15.0187 77.5224 15.232C77.309 15.4453 77.0424 15.552 76.7224 15.552C76.445 15.552 76.2424 15.4987 76.1144 15.392C75.9864 15.2853 75.869 15.1787 75.7624 15.072C75.6557 14.9653 75.485 14.912 75.2504 14.912C74.7384 14.912 74.4184 15.1893 74.2904 15.744C74.2264 15.9573 74.2264 16.1387 74.2904 16.288C74.3757 16.4373 74.493 16.5867 74.6424 16.736C75.1544 17.2267 75.549 17.824 75.8264 18.528C76.125 19.232 76.2744 20.0107 76.2744 20.864C76.2744 21.888 76.061 22.8053 75.6344 23.616C75.229 24.4267 74.6637 25.0667 73.9384 25.536C73.2344 26.0053 72.4344 26.24 71.5384 26.24C71.1544 26.24 70.8237 26.3253 70.5464 26.496C70.269 26.6453 69.9917 26.8693 69.7144 27.168L69.1704 27.776C68.893 28.1173 68.8077 28.448 68.9144 28.768C69.0424 29.0667 69.341 29.216 69.8104 29.216H72.5624C74.0984 29.216 75.3144 29.6 76.2104 30.368C77.1064 31.1147 77.5544 32.1493 77.5544 33.472C77.5544 34.5173 77.2557 35.4453 76.6584 36.256C76.061 37.0667 75.261 37.7067 74.2584 38.176C73.277 38.6453 72.1677 38.88 70.9304 38.88ZM71.5064 25.44C72.2744 25.44 72.8824 25.024 73.3304 24.192C73.7784 23.36 74.0024 22.2293 74.0024 20.8C74.0024 19.4133 73.7677 18.304 73.2984 17.472C72.8504 16.6187 72.253 16.192 71.5064 16.192C70.7597 16.192 70.1517 16.6187 69.6824 17.472C69.2344 18.304 69.0104 19.4133 69.0104 20.8C69.0104 22.2293 69.2344 23.36 69.6824 24.192C70.1304 25.024 70.7384 25.44 71.5064 25.44ZM71.3144 38.176C72.0824 38.176 72.7864 38.0053 73.4264 37.664C74.0664 37.3227 74.5677 36.8427 74.9304 36.224C75.3144 35.6267 75.5064 34.944 75.5064 34.176C75.5064 33.216 75.2184 32.48 74.6424 31.968C74.0877 31.4347 73.2984 31.168 72.2744 31.168H71.5384C70.877 31.168 70.3757 31.232 70.0344 31.36C69.7144 31.488 69.405 31.712 69.1064 32.032C68.445 32.736 68.029 33.3013 67.8584 33.728C67.6877 34.1547 67.6024 34.592 67.6024 35.04C67.6024 35.9787 67.9224 36.736 68.5624 37.312C69.2237 37.888 70.141 38.176 71.3144 38.176ZM87.3229 32C87.0029 32 86.8429 31.8827 86.8429 31.648C86.8429 31.4133 86.9815 31.2853 87.2589 31.264L88.6989 31.04C89.1255 30.976 89.4135 30.8693 89.5629 30.72C89.7122 30.5493 89.7869 30.24 89.7869 29.792V10.592C89.7869 10.2933 89.7229 10.08 89.5949 9.952C89.4669 9.824 89.2002 9.76 88.7949 9.76C88.0055 9.76 87.2269 10.1013 86.4589 10.784C85.6909 11.4667 85.1895 12.5653 84.9549 14.08L84.7949 15.136C84.7522 15.4133 84.6029 15.552 84.3469 15.552C84.0269 15.552 83.8882 15.3707 83.9309 15.008L84.2189 9.216C84.2615 8.72533 84.4535 8.48 84.7949 8.48C84.9442 8.48 85.0829 8.52267 85.2109 8.608C85.3389 8.672 85.5522 8.74667 85.8509 8.832C86.1709 8.91733 86.6722 8.96 87.3549 8.96H94.4909C95.1735 8.96 95.6642 8.91733 95.9629 8.832C96.2829 8.74667 96.5069 8.672 96.6349 8.608C96.7842 8.52267 96.9229 8.48 97.0509 8.48C97.3922 8.48 97.5842 8.72533 97.6269 9.216L97.9149 15.008C97.9575 15.3707 97.8189 15.552 97.4989 15.552C97.2429 15.552 97.0935 15.4133 97.0509 15.136L96.8909 14.08C96.6775 12.5653 96.1869 11.4667 95.4189 10.784C94.6509 10.1013 93.8615 9.76 93.0509 9.76C92.6455 9.76 92.3789 9.824 92.2509 9.952C92.1229 10.08 92.0589 10.2933 92.0589 10.592V29.792C92.0589 30.24 92.1335 30.5493 92.2829 30.72C92.4535 30.8693 92.7415 30.976 93.1469 31.04L94.5869 31.264C94.8642 31.2853 95.0029 31.4133 95.0029 31.648C95.0029 31.8827 94.8429 32 94.5229 32H87.3229ZM101.694 17.728C102.568 16.2347 103.624 15.488 104.862 15.488C105.566 15.488 106.088 15.7013 106.43 16.128C106.771 16.5333 106.942 16.992 106.942 17.504C106.942 17.9093 106.835 18.24 106.622 18.496C106.43 18.752 106.12 18.88 105.694 18.88C105.352 18.88 105.096 18.8053 104.926 18.656C104.776 18.4853 104.648 18.2933 104.542 18.08C104.456 17.8667 104.35 17.6853 104.222 17.536C104.094 17.3653 103.88 17.28 103.582 17.28C103.198 17.28 102.835 17.5147 102.494 17.984C102.152 18.432 101.864 19.04 101.63 19.808C101.416 20.576 101.31 21.4507 101.31 22.432V29.856C101.31 30.304 101.374 30.624 101.502 30.816C101.651 31.008 101.95 31.1253 102.398 31.168L103.262 31.264C103.496 31.3067 103.614 31.424 103.614 31.616C103.614 31.872 103.454 32 103.134 32H97.7256C97.4056 32 97.2456 31.8827 97.2456 31.648C97.2456 31.456 97.3843 31.328 97.6616 31.264L98.0456 31.2C98.4936 31.1147 98.7816 30.9867 98.9096 30.816C99.059 30.624 99.1336 30.304 99.1336 29.856V19.104C99.1336 18.72 99.0696 18.464 98.9416 18.336C98.835 18.1867 98.6323 18.0907 98.3336 18.048L97.6616 17.952C97.3843 17.9307 97.2456 17.8133 97.2456 17.6C97.2456 17.4293 97.4163 17.312 97.7576 17.248C98.419 17.1413 98.9203 16.9707 99.2616 16.736C99.6243 16.5013 99.9976 16.2133 100.382 15.872C100.574 15.68 100.734 15.584 100.862 15.584C101.054 15.584 101.15 15.712 101.15 15.968V17.696C101.15 17.8453 101.214 17.9413 101.342 17.984C101.47 18.0053 101.587 17.92 101.694 17.728ZM110.231 32.288C109.335 32.288 108.599 32.0107 108.023 31.456C107.447 30.88 107.159 30.1227 107.159 29.184C107.159 28.2667 107.447 27.4027 108.023 26.592C108.599 25.76 109.388 25.0133 110.391 24.352C111.393 23.6907 112.535 23.1573 113.815 22.752C114.092 22.6667 114.231 22.4853 114.231 22.208V19.296C114.231 18.272 114.071 17.5467 113.751 17.12C113.431 16.672 112.993 16.448 112.439 16.448C111.905 16.448 111.415 16.6933 110.967 17.184C110.54 17.6533 110.231 18.4533 110.039 19.584C109.932 20.2667 109.697 20.768 109.335 21.088C108.993 21.3867 108.641 21.536 108.279 21.536C107.681 21.536 107.383 21.2373 107.383 20.64C107.383 20.0213 107.553 19.4133 107.895 18.816C108.257 18.1973 108.727 17.6427 109.303 17.152C109.879 16.64 110.508 16.2347 111.191 15.936C111.873 15.6373 112.556 15.488 113.239 15.488C115.351 15.488 116.407 16.7147 116.407 19.168V28.96C116.407 29.856 116.631 30.304 117.079 30.304C117.356 30.304 117.612 30.1227 117.847 29.76C118.081 29.376 118.199 28.736 118.199 27.84C118.199 27.4987 118.337 27.328 118.615 27.328C118.871 27.328 118.999 27.5093 118.999 27.872C118.999 29.4293 118.721 30.56 118.167 31.264C117.633 31.9467 117.025 32.288 116.343 32.288C115.831 32.288 115.425 32.0853 115.127 31.68C114.828 31.2533 114.625 30.752 114.519 30.176C114.497 29.9627 114.401 29.856 114.231 29.856C114.081 29.8347 113.932 29.9307 113.783 30.144C113.271 30.848 112.748 31.3813 112.215 31.744C111.681 32.1067 111.02 32.288 110.231 32.288ZM111.095 30.816C111.649 30.816 112.161 30.624 112.631 30.24C113.1 29.8347 113.484 29.3013 113.783 28.64C114.081 27.9787 114.231 27.232 114.231 26.4V24.064C114.231 23.6587 114.007 23.5413 113.559 23.712C112.257 24.1813 111.244 24.832 110.519 25.664C109.815 26.4747 109.463 27.456 109.463 28.608C109.463 30.08 110.007 30.816 111.095 30.816ZM124.932 32.288C123.993 32.288 123.14 31.9787 122.372 31.36C121.625 30.72 121.028 29.8133 120.58 28.64C120.132 27.4667 119.908 26.0693 119.908 24.448C119.908 22.6347 120.175 21.056 120.708 19.712C121.263 18.368 122.009 17.3333 122.948 16.608C123.887 15.8613 124.932 15.488 126.084 15.488C127.065 15.488 127.833 15.68 128.388 16.064C128.601 16.2133 128.708 16.448 128.708 16.768L128.772 20.672C128.772 20.992 128.644 21.152 128.388 21.152C128.153 21.152 128.004 21.0133 127.94 20.736C127.641 19.5627 127.353 18.656 127.076 18.016C126.799 17.376 126.511 16.9387 126.212 16.704C125.913 16.448 125.583 16.32 125.22 16.32C124.793 16.32 124.345 16.5653 123.876 17.056C123.428 17.5467 123.044 18.3467 122.724 19.456C122.425 20.544 122.276 21.984 122.276 23.776C122.276 26.0587 122.564 27.776 123.14 28.928C123.737 30.08 124.505 30.656 125.444 30.656C126.191 30.656 126.809 30.3467 127.3 29.728C127.812 29.1093 128.249 27.9893 128.612 26.368C128.676 26.1333 128.804 26.016 128.996 26.016C129.252 26.016 129.348 26.2293 129.284 26.656C129.049 28.1493 128.719 29.312 128.292 30.144C127.887 30.9547 127.396 31.52 126.82 31.84C126.265 32.1387 125.636 32.288 124.932 32.288ZM130.88 32C130.624 32 130.496 31.8827 130.496 31.648C130.496 31.4347 130.613 31.3067 130.848 31.264L131.296 31.2C131.744 31.136 132.032 31.008 132.16 30.816C132.309 30.624 132.384 30.304 132.384 29.856V11.52C132.384 11.136 132.32 10.88 132.192 10.752C132.085 10.6027 131.882 10.5067 131.584 10.464L130.912 10.368C130.677 10.3253 130.56 10.1973 130.56 9.984C130.56 9.77067 130.677 9.64267 130.912 9.6C131.509 9.472 132.01 9.32267 132.416 9.152C132.821 8.98133 133.162 8.81067 133.44 8.64C133.781 8.42667 134.037 8.32 134.208 8.32C134.442 8.32 134.56 8.49067 134.56 8.832V22.24C134.56 22.4533 134.645 22.592 134.816 22.656C135.008 22.6987 135.189 22.624 135.36 22.432L139.104 18.4C139.552 17.9093 139.733 17.504 139.648 17.184C139.584 16.8427 139.338 16.6293 138.912 16.544L138.176 16.416C137.898 16.352 137.76 16.2133 137.76 16C137.76 15.7867 137.909 15.68 138.208 15.68H143.712C144.01 15.68 144.16 15.7973 144.16 16.032C144.16 16.2667 144.021 16.3947 143.744 16.416L143.456 16.448C142.965 16.4907 142.474 16.6827 141.984 17.024C141.493 17.344 140.906 17.856 140.224 18.56L138.24 20.672C137.792 21.1627 137.685 21.6427 137.92 22.112L141.952 29.856C142.186 30.2827 142.442 30.592 142.72 30.784C142.997 30.976 143.338 31.1147 143.744 31.2L144.064 31.264C144.32 31.328 144.448 31.456 144.448 31.648C144.448 31.8827 144.298 32 144 32H138.432C138.133 32 137.984 31.8827 137.984 31.648C137.984 31.4347 138.122 31.3067 138.4 31.264L138.944 31.2C139.754 31.0933 139.925 30.5707 139.456 29.632L136.416 23.712C136.309 23.4987 136.149 23.3813 135.936 23.36C135.744 23.3387 135.562 23.4133 135.392 23.584L135.04 23.936C134.848 24.128 134.72 24.32 134.656 24.512C134.592 24.704 134.56 24.9173 134.56 25.152V29.856C134.56 30.304 134.624 30.624 134.752 30.816C134.901 31.008 135.2 31.1253 135.648 31.168L136.512 31.264C136.746 31.3067 136.864 31.4347 136.864 31.648C136.864 31.8827 136.736 32 136.48 32H130.88ZM149.566 32.288C148.542 32.288 147.625 31.9467 146.814 31.264C146.003 30.5813 145.353 29.6213 144.862 28.384C144.393 27.1253 144.158 25.6747 144.158 24.032C144.158 22.3467 144.403 20.864 144.894 19.584C145.385 18.304 146.057 17.3013 146.91 16.576C147.763 15.8507 148.713 15.488 149.758 15.488C151.017 15.488 152.03 16.0107 152.798 17.056C153.587 18.08 153.982 19.7547 153.982 22.08C153.982 22.784 153.715 23.136 153.182 23.136H147.102C146.675 23.136 146.462 23.3813 146.462 23.872C146.462 26.1333 146.793 27.8293 147.454 28.96C148.115 30.0907 148.958 30.656 149.982 30.656C150.793 30.656 151.454 30.368 151.966 29.792C152.478 29.216 152.894 28.2453 153.214 26.88C153.278 26.6453 153.417 26.528 153.63 26.528C153.886 26.528 153.982 26.7413 153.918 27.168C153.577 29.0667 153.033 30.4 152.286 31.168C151.539 31.9147 150.633 32.288 149.566 32.288ZM147.006 22.336H150.238C151.262 22.336 151.774 21.8027 151.774 20.736C151.774 19.3493 151.603 18.2613 151.262 17.472C150.921 16.6827 150.409 16.288 149.726 16.288C148.894 16.288 148.19 16.768 147.614 17.728C147.059 18.688 146.697 20.0533 146.526 21.824C146.483 22.1653 146.643 22.336 147.006 22.336ZM159.725 17.728C160.6 16.2347 161.656 15.488 162.893 15.488C163.597 15.488 164.12 15.7013 164.461 16.128C164.802 16.5333 164.973 16.992 164.973 17.504C164.973 17.9093 164.866 18.24 164.653 18.496C164.461 18.752 164.152 18.88 163.725 18.88C163.384 18.88 163.128 18.8053 162.957 18.656C162.808 18.4853 162.68 18.2933 162.573 18.08C162.488 17.8667 162.381 17.6853 162.253 17.536C162.125 17.3653 161.912 17.28 161.613 17.28C161.229 17.28 160.866 17.5147 160.525 17.984C160.184 18.432 159.896 19.04 159.661 19.808C159.448 20.576 159.341 21.4507 159.341 22.432V29.856C159.341 30.304 159.405 30.624 159.533 30.816C159.682 31.008 159.981 31.1253 160.429 31.168L161.293 31.264C161.528 31.3067 161.645 31.424 161.645 31.616C161.645 31.872 161.485 32 161.165 32H155.757C155.437 32 155.277 31.8827 155.277 31.648C155.277 31.456 155.416 31.328 155.693 31.264L156.077 31.2C156.525 31.1147 156.813 30.9867 156.941 30.816C157.09 30.624 157.165 30.304 157.165 29.856V19.104C157.165 18.72 157.101 18.464 156.973 18.336C156.866 18.1867 156.664 18.0907 156.365 18.048L155.693 17.952C155.416 17.9307 155.277 17.8133 155.277 17.6C155.277 17.4293 155.448 17.312 155.789 17.248C156.45 17.1413 156.952 16.9707 157.293 16.736C157.656 16.5013 158.029 16.2133 158.413 15.872C158.605 15.68 158.765 15.584 158.893 15.584C159.085 15.584 159.181 15.712 159.181 15.968V17.696C159.181 17.8453 159.245 17.9413 159.373 17.984C159.501 18.0053 159.618 17.92 159.725 17.728Z" fill="black"/>
</svg>
