<svg width="165" height="42" viewBox="0 0 165 42" fill="none" xmlns="http://www.w3.org/2000/svg">
<path d="M13.3864 32.288C11.8077 32.288 10.421 31.7973 9.22638 30.816C8.05304 29.8347 7.13571 28.4587 6.47438 26.688C5.83438 24.896 5.51438 22.784 5.51438 20.352C5.51438 18.0053 5.86638 15.9573 6.57038 14.208C7.29571 12.4373 8.25571 11.072 9.45038 10.112C10.6664 9.13067 12.0104 8.64 13.4824 8.64C14.357 8.64 15.125 8.72533 15.7864 8.896C16.4477 9.04533 17.0344 9.248 17.5464 9.504C17.8024 9.65333 17.9304 9.87733 17.9304 10.176L18.0264 15.04C18.0264 15.4027 17.8984 15.584 17.6424 15.584C17.4077 15.584 17.2584 15.4453 17.1944 15.168L16.8744 13.984C16.4264 12.32 15.9037 11.168 15.3064 10.528C14.7304 9.888 14.037 9.568 13.2264 9.568C11.733 9.568 10.485 10.496 9.48238 12.352C8.50104 14.1867 8.01038 16.8533 8.01038 20.352C8.01038 22.7413 8.25571 24.7573 8.74638 26.4C9.25838 28.0427 9.90904 29.28 10.6984 30.112C11.509 30.944 12.3624 31.36 13.2584 31.36C14.2184 31.36 14.9864 31.0613 15.5624 30.464C16.1597 29.8667 16.661 28.7147 17.0664 27.008L17.4504 25.44C17.5144 25.12 17.685 24.9813 17.9624 25.024C18.197 25.0667 18.3144 25.248 18.3144 25.568L18.1864 30.752C18.1864 31.0507 18.0477 31.2747 17.7704 31.424C17.2584 31.68 16.6504 31.8827 15.9464 32.032C15.2637 32.2027 14.4104 32.288 13.3864 32.288ZM26.1054 32.288C25.0174 32.288 24.036 31.9253 23.1614 31.2C22.308 30.4533 21.6254 29.44 21.1134 28.16C20.6014 26.88 20.3454 25.4507 20.3454 23.872C20.3454 22.2933 20.6014 20.8747 21.1134 19.616C21.6254 18.3573 22.3187 17.3547 23.1934 16.608C24.068 15.8613 25.0387 15.488 26.1054 15.488C27.1934 15.488 28.164 15.8613 29.0174 16.608C29.892 17.3547 30.5854 18.3573 31.0974 19.616C31.6094 20.8747 31.8654 22.2933 31.8654 23.872C31.8654 25.4507 31.6094 26.88 31.0974 28.16C30.6067 29.44 29.924 30.4533 29.0494 31.2C28.1747 31.9253 27.1934 32.288 26.1054 32.288ZM26.1054 31.488C28.324 31.488 29.4334 28.9493 29.4334 23.872C29.4334 18.816 28.324 16.288 26.1054 16.288C23.8867 16.288 22.7774 18.816 22.7774 23.872C22.7774 28.9493 23.8867 31.488 26.1054 31.488ZM35.3919 29.856V17.344C35.3919 16.832 35.1359 16.576 34.6239 16.576H33.8879C33.6319 16.576 33.5039 16.4693 33.5039 16.256C33.5039 16.0427 33.6319 15.9253 33.8879 15.904C34.8905 15.7973 35.3919 15.36 35.3919 14.592V14.4C35.3919 13.2907 35.5519 12.256 35.8719 11.296C36.2132 10.336 36.6932 9.55733 37.3119 8.96C37.9519 8.36267 38.7305 8.064 39.6479 8.064C40.5012 8.064 41.2159 8.30933 41.7919 8.8C42.3679 9.29067 42.6559 9.87733 42.6559 10.56C42.6559 10.9653 42.5492 11.2747 42.3359 11.488C42.1439 11.68 41.8772 11.776 41.5359 11.776C41.1092 11.776 40.7999 11.6373 40.6079 11.36C40.4372 11.0827 40.2985 10.7733 40.1919 10.432C40.0852 10.0693 39.9465 9.74933 39.7759 9.472C39.6265 9.19467 39.3492 9.056 38.9439 9.056C38.5172 9.056 38.1759 9.30133 37.9199 9.792C37.6852 10.2613 37.5679 11.1573 37.5679 12.48V15.296C37.5679 15.552 37.6959 15.68 37.9519 15.68H40.7039C41.0239 15.68 41.1839 15.8293 41.1839 16.128C41.1839 16.4267 41.0239 16.576 40.7039 16.576H37.9519C37.6959 16.576 37.5679 16.704 37.5679 16.96V29.856C37.5679 30.304 37.6319 30.6133 37.7599 30.784C37.9092 30.9547 38.2079 31.0613 38.6559 31.104L40.3519 31.264C40.5865 31.3067 40.7039 31.424 40.7039 31.616C40.7039 31.872 40.5439 32 40.2239 32H33.5679C33.2479 32 33.0879 31.8827 33.0879 31.648C33.0879 31.4133 33.2265 31.2853 33.5039 31.264L34.3039 31.2C34.7519 31.1573 35.0399 31.04 35.1679 30.848C35.3172 30.6347 35.3919 30.304 35.3919 29.856ZM44.6106 29.856V17.344C44.6106 16.832 44.3546 16.576 43.8426 16.576H43.1066C42.8506 16.576 42.7226 16.4693 42.7226 16.256C42.7226 16.0427 42.8506 15.9253 43.1066 15.904C44.1093 15.7973 44.6106 15.36 44.6106 14.592V14.4C44.6106 13.2907 44.7706 12.256 45.0906 11.296C45.432 10.336 45.912 9.55733 46.5306 8.96C47.1706 8.36267 47.9493 8.064 48.8666 8.064C49.72 8.064 50.4346 8.30933 51.0106 8.8C51.5866 9.29067 51.8746 9.87733 51.8746 10.56C51.8746 10.9653 51.768 11.2747 51.5546 11.488C51.3626 11.68 51.096 11.776 50.7546 11.776C50.328 11.776 50.0186 11.6373 49.8266 11.36C49.656 11.0827 49.5173 10.7733 49.4106 10.432C49.304 10.0693 49.1653 9.74933 48.9946 9.472C48.8453 9.19467 48.568 9.056 48.1626 9.056C47.736 9.056 47.3946 9.30133 47.1386 9.792C46.904 10.2613 46.7866 11.1573 46.7866 12.48V15.296C46.7866 15.552 46.9146 15.68 47.1706 15.68H49.9226C50.2426 15.68 50.4026 15.8293 50.4026 16.128C50.4026 16.4267 50.2426 16.576 49.9226 16.576H47.1706C46.9146 16.576 46.7866 16.704 46.7866 16.96V29.856C46.7866 30.304 46.8506 30.6133 46.9786 30.784C47.128 30.9547 47.4266 31.0613 47.8746 31.104L49.5706 31.264C49.8053 31.3067 49.9226 31.424 49.9226 31.616C49.9226 31.872 49.7626 32 49.4426 32H42.7866C42.4666 32 42.3066 31.8827 42.3066 31.648C42.3066 31.4133 42.4453 31.2853 42.7226 31.264L43.5226 31.2C43.9706 31.1573 44.2586 31.04 44.3866 30.848C44.536 30.6347 44.6106 30.304 44.6106 29.856ZM56.2846 32.288C55.2606 32.288 54.3433 31.9467 53.5326 31.264C52.722 30.5813 52.0713 29.6213 51.5806 28.384C51.1113 27.1253 50.8766 25.6747 50.8766 24.032C50.8766 22.3467 51.122 20.864 51.6126 19.584C52.1033 18.304 52.7753 17.3013 53.6286 16.576C54.482 15.8507 55.4313 15.488 56.4766 15.488C57.7353 15.488 58.7486 16.0107 59.5166 17.056C60.306 18.08 60.7006 19.7547 60.7006 22.08C60.7006 22.784 60.434 23.136 59.9006 23.136H53.8206C53.394 23.136 53.1806 23.3813 53.1806 23.872C53.1806 26.1333 53.5113 27.8293 54.1726 28.96C54.834 30.0907 55.6766 30.656 56.7006 30.656C57.5113 30.656 58.1726 30.368 58.6846 29.792C59.1966 29.216 59.6126 28.2453 59.9326 26.88C59.9966 26.6453 60.1353 26.528 60.3486 26.528C60.6046 26.528 60.7006 26.7413 60.6366 27.168C60.2953 29.0667 59.7513 30.4 59.0046 31.168C58.258 31.9147 57.3513 32.288 56.2846 32.288ZM53.7246 22.336H56.9566C57.9806 22.336 58.4926 21.8027 58.4926 20.736C58.4926 19.3493 58.322 18.2613 57.9806 17.472C57.6393 16.6827 57.1273 16.288 56.4446 16.288C55.6126 16.288 54.9086 16.768 54.3326 17.728C53.778 18.688 53.4153 20.0533 53.2446 21.824C53.202 22.1653 53.362 22.336 53.7246 22.336ZM67.6596 32.288C66.6356 32.288 65.7183 31.9467 64.9076 31.264C64.097 30.5813 63.4463 29.6213 62.9556 28.384C62.4863 27.1253 62.2516 25.6747 62.2516 24.032C62.2516 22.3467 62.497 20.864 62.9876 19.584C63.4783 18.304 64.1503 17.3013 65.0036 16.576C65.857 15.8507 66.8063 15.488 67.8516 15.488C69.1103 15.488 70.1236 16.0107 70.8916 17.056C71.681 18.08 72.0756 19.7547 72.0756 22.08C72.0756 22.784 71.809 23.136 71.2756 23.136H65.1956C64.769 23.136 64.5556 23.3813 64.5556 23.872C64.5556 26.1333 64.8863 27.8293 65.5476 28.96C66.209 30.0907 67.0516 30.656 68.0756 30.656C68.8863 30.656 69.5476 30.368 70.0596 29.792C70.5716 29.216 70.9876 28.2453 71.3076 26.88C71.3716 26.6453 71.5103 26.528 71.7236 26.528C71.9796 26.528 72.0756 26.7413 72.0116 27.168C71.6703 29.0667 71.1263 30.4 70.3796 31.168C69.633 31.9147 68.7263 32.288 67.6596 32.288ZM65.0996 22.336H68.3316C69.3556 22.336 69.8676 21.8027 69.8676 20.736C69.8676 19.3493 69.697 18.2613 69.3556 17.472C69.0143 16.6827 68.5023 16.288 67.8196 16.288C66.9876 16.288 66.2836 16.768 65.7076 17.728C65.153 18.688 64.7903 20.0533 64.6196 21.824C64.577 22.1653 64.737 22.336 65.0996 22.336ZM82.1041 32C81.7841 32 81.6241 31.8827 81.6241 31.648C81.6241 31.4133 81.7628 31.2853 82.0401 31.264L83.4801 31.04C83.9068 30.976 84.1948 30.8693 84.3441 30.72C84.4935 30.5493 84.5681 30.24 84.5681 29.792V10.592C84.5681 10.2933 84.5041 10.08 84.3761 9.952C84.2481 9.824 83.9815 9.76 83.5761 9.76C82.7868 9.76 82.0081 10.1013 81.2401 10.784C80.4721 11.4667 79.9708 12.5653 79.7361 14.08L79.5761 15.136C79.5335 15.4133 79.3841 15.552 79.1281 15.552C78.8081 15.552 78.6695 15.3707 78.7121 15.008L79.0001 9.216C79.0428 8.72533 79.2348 8.48 79.5761 8.48C79.7255 8.48 79.8641 8.52267 79.9921 8.608C80.1201 8.672 80.3335 8.74667 80.6321 8.832C80.9521 8.91733 81.4535 8.96 82.1361 8.96H89.2721C89.9548 8.96 90.4455 8.91733 90.7441 8.832C91.0641 8.74667 91.2881 8.672 91.4161 8.608C91.5655 8.52267 91.7041 8.48 91.8321 8.48C92.1735 8.48 92.3655 8.72533 92.4081 9.216L92.6961 15.008C92.7388 15.3707 92.6001 15.552 92.2801 15.552C92.0241 15.552 91.8748 15.4133 91.8321 15.136L91.6721 14.08C91.4588 12.5653 90.9681 11.4667 90.2001 10.784C89.4321 10.1013 88.6428 9.76 87.8321 9.76C87.4268 9.76 87.1601 9.824 87.0321 9.952C86.9041 10.08 86.8401 10.2933 86.8401 10.592V29.792C86.8401 30.24 86.9148 30.5493 87.0641 30.72C87.2348 30.8693 87.5228 30.976 87.9281 31.04L89.3681 31.264C89.6455 31.2853 89.7841 31.4133 89.7841 31.648C89.7841 31.8827 89.6241 32 89.3041 32H82.1041ZM96.4749 17.728C97.3495 16.2347 98.4055 15.488 99.6429 15.488C100.347 15.488 100.87 15.7013 101.211 16.128C101.552 16.5333 101.723 16.992 101.723 17.504C101.723 17.9093 101.616 18.24 101.403 18.496C101.211 18.752 100.902 18.88 100.475 18.88C100.134 18.88 99.8775 18.8053 99.7069 18.656C99.5575 18.4853 99.4295 18.2933 99.3229 18.08C99.2375 17.8667 99.1309 17.6853 99.0029 17.536C98.8749 17.3653 98.6615 17.28 98.3629 17.28C97.9789 17.28 97.6162 17.5147 97.2749 17.984C96.9335 18.432 96.6455 19.04 96.4109 19.808C96.1975 20.576 96.0909 21.4507 96.0909 22.432V29.856C96.0909 30.304 96.1549 30.624 96.2829 30.816C96.4322 31.008 96.7309 31.1253 97.1789 31.168L98.0429 31.264C98.2775 31.3067 98.3949 31.424 98.3949 31.616C98.3949 31.872 98.2349 32 97.9149 32H92.5069C92.1869 32 92.0269 31.8827 92.0269 31.648C92.0269 31.456 92.1655 31.328 92.4429 31.264L92.8269 31.2C93.2749 31.1147 93.5629 30.9867 93.6909 30.816C93.8402 30.624 93.9149 30.304 93.9149 29.856V19.104C93.9149 18.72 93.8509 18.464 93.7229 18.336C93.6162 18.1867 93.4135 18.0907 93.1149 18.048L92.4429 17.952C92.1655 17.9307 92.0269 17.8133 92.0269 17.6C92.0269 17.4293 92.1975 17.312 92.5389 17.248C93.2002 17.1413 93.7015 16.9707 94.0429 16.736C94.4055 16.5013 94.7789 16.2133 95.1629 15.872C95.3549 15.68 95.5149 15.584 95.6429 15.584C95.8349 15.584 95.9309 15.712 95.9309 15.968V17.696C95.9309 17.8453 95.9949 17.9413 96.1229 17.984C96.2509 18.0053 96.3682 17.92 96.4749 17.728ZM105.012 32.288C104.116 32.288 103.38 32.0107 102.804 31.456C102.228 30.88 101.94 30.1227 101.94 29.184C101.94 28.2667 102.228 27.4027 102.804 26.592C103.38 25.76 104.169 25.0133 105.172 24.352C106.175 23.6907 107.316 23.1573 108.596 22.752C108.873 22.6667 109.012 22.4853 109.012 22.208V19.296C109.012 18.272 108.852 17.5467 108.532 17.12C108.212 16.672 107.775 16.448 107.22 16.448C106.687 16.448 106.196 16.6933 105.748 17.184C105.321 17.6533 105.012 18.4533 104.82 19.584C104.713 20.2667 104.479 20.768 104.116 21.088C103.775 21.3867 103.423 21.536 103.06 21.536C102.463 21.536 102.164 21.2373 102.164 20.64C102.164 20.0213 102.335 19.4133 102.676 18.816C103.039 18.1973 103.508 17.6427 104.084 17.152C104.66 16.64 105.289 16.2347 105.972 15.936C106.655 15.6373 107.337 15.488 108.02 15.488C110.132 15.488 111.188 16.7147 111.188 19.168V28.96C111.188 29.856 111.412 30.304 111.86 30.304C112.137 30.304 112.393 30.1227 112.628 29.76C112.863 29.376 112.98 28.736 112.98 27.84C112.98 27.4987 113.119 27.328 113.396 27.328C113.652 27.328 113.78 27.5093 113.78 27.872C113.78 29.4293 113.503 30.56 112.948 31.264C112.415 31.9467 111.807 32.288 111.124 32.288C110.612 32.288 110.207 32.0853 109.908 31.68C109.609 31.2533 109.407 30.752 109.3 30.176C109.279 29.9627 109.183 29.856 109.012 29.856C108.863 29.8347 108.713 29.9307 108.564 30.144C108.052 30.848 107.529 31.3813 106.996 31.744C106.463 32.1067 105.801 32.288 105.012 32.288ZM105.876 30.816C106.431 30.816 106.943 30.624 107.412 30.24C107.881 29.8347 108.265 29.3013 108.564 28.64C108.863 27.9787 109.012 27.232 109.012 26.4V24.064C109.012 23.6587 108.788 23.5413 108.34 23.712C107.039 24.1813 106.025 24.832 105.3 25.664C104.596 26.4747 104.244 27.456 104.244 28.608C104.244 30.08 104.788 30.816 105.876 30.816ZM119.713 32.288C118.774 32.288 117.921 31.9787 117.153 31.36C116.406 30.72 115.809 29.8133 115.361 28.64C114.913 27.4667 114.689 26.0693 114.689 24.448C114.689 22.6347 114.956 21.056 115.489 19.712C116.044 18.368 116.79 17.3333 117.729 16.608C118.668 15.8613 119.713 15.488 120.865 15.488C121.846 15.488 122.614 15.68 123.169 16.064C123.382 16.2133 123.489 16.448 123.489 16.768L123.553 20.672C123.553 20.992 123.425 21.152 123.169 21.152C122.934 21.152 122.785 21.0133 122.721 20.736C122.422 19.5627 122.134 18.656 121.857 18.016C121.58 17.376 121.292 16.9387 120.993 16.704C120.694 16.448 120.364 16.32 120.001 16.32C119.574 16.32 119.126 16.5653 118.657 17.056C118.209 17.5467 117.825 18.3467 117.505 19.456C117.206 20.544 117.057 21.984 117.057 23.776C117.057 26.0587 117.345 27.776 117.921 28.928C118.518 30.08 119.286 30.656 120.225 30.656C120.972 30.656 121.59 30.3467 122.081 29.728C122.593 29.1093 123.03 27.9893 123.393 26.368C123.457 26.1333 123.585 26.016 123.777 26.016C124.033 26.016 124.129 26.2293 124.065 26.656C123.83 28.1493 123.5 29.312 123.073 30.144C122.668 30.9547 122.177 31.52 121.601 31.84C121.046 32.1387 120.417 32.288 119.713 32.288ZM125.661 32C125.405 32 125.277 31.8827 125.277 31.648C125.277 31.4347 125.394 31.3067 125.629 31.264L126.077 31.2C126.525 31.136 126.813 31.008 126.941 30.816C127.09 30.624 127.165 30.304 127.165 29.856V11.52C127.165 11.136 127.101 10.88 126.973 10.752C126.866 10.6027 126.664 10.5067 126.365 10.464L125.693 10.368C125.458 10.3253 125.341 10.1973 125.341 9.984C125.341 9.77067 125.458 9.64267 125.693 9.6C126.29 9.472 126.792 9.32267 127.197 9.152C127.602 8.98133 127.944 8.81067 128.221 8.64C128.562 8.42667 128.818 8.32 128.989 8.32C129.224 8.32 129.341 8.49067 129.341 8.832V22.24C129.341 22.4533 129.426 22.592 129.597 22.656C129.789 22.6987 129.97 22.624 130.141 22.432L133.885 18.4C134.333 17.9093 134.514 17.504 134.429 17.184C134.365 16.8427 134.12 16.6293 133.693 16.544L132.957 16.416C132.68 16.352 132.541 16.2133 132.541 16C132.541 15.7867 132.69 15.68 132.989 15.68H138.493C138.792 15.68 138.941 15.7973 138.941 16.032C138.941 16.2667 138.802 16.3947 138.525 16.416L138.237 16.448C137.746 16.4907 137.256 16.6827 136.765 17.024C136.274 17.344 135.688 17.856 135.005 18.56L133.021 20.672C132.573 21.1627 132.466 21.6427 132.701 22.112L136.733 29.856C136.968 30.2827 137.224 30.592 137.501 30.784C137.778 30.976 138.12 31.1147 138.525 31.2L138.845 31.264C139.101 31.328 139.229 31.456 139.229 31.648C139.229 31.8827 139.08 32 138.781 32H133.213C132.914 32 132.765 31.8827 132.765 31.648C132.765 31.4347 132.904 31.3067 133.181 31.264L133.725 31.2C134.536 31.0933 134.706 30.5707 134.237 29.632L131.197 23.712C131.09 23.4987 130.93 23.3813 130.717 23.36C130.525 23.3387 130.344 23.4133 130.173 23.584L129.821 23.936C129.629 24.128 129.501 24.32 129.437 24.512C129.373 24.704 129.341 24.9173 129.341 25.152V29.856C129.341 30.304 129.405 30.624 129.533 30.816C129.682 31.008 129.981 31.1253 130.429 31.168L131.293 31.264C131.528 31.3067 131.645 31.4347 131.645 31.648C131.645 31.8827 131.517 32 131.261 32H125.661ZM144.347 32.288C143.323 32.288 142.406 31.9467 141.595 31.264C140.784 30.5813 140.134 29.6213 139.643 28.384C139.174 27.1253 138.939 25.6747 138.939 24.032C138.939 22.3467 139.184 20.864 139.675 19.584C140.166 18.304 140.838 17.3013 141.691 16.576C142.544 15.8507 143.494 15.488 144.539 15.488C145.798 15.488 146.811 16.0107 147.579 17.056C148.368 18.08 148.763 19.7547 148.763 22.08C148.763 22.784 148.496 23.136 147.963 23.136H141.883C141.456 23.136 141.243 23.3813 141.243 23.872C141.243 26.1333 141.574 27.8293 142.235 28.96C142.896 30.0907 143.739 30.656 144.763 30.656C145.574 30.656 146.235 30.368 146.747 29.792C147.259 29.216 147.675 28.2453 147.995 26.88C148.059 26.6453 148.198 26.528 148.411 26.528C148.667 26.528 148.763 26.7413 148.699 27.168C148.358 29.0667 147.814 30.4 147.067 31.168C146.32 31.9147 145.414 32.288 144.347 32.288ZM141.787 22.336H145.019C146.043 22.336 146.555 21.8027 146.555 20.736C146.555 19.3493 146.384 18.2613 146.043 17.472C145.702 16.6827 145.19 16.288 144.507 16.288C143.675 16.288 142.971 16.768 142.395 17.728C141.84 18.688 141.478 20.0533 141.307 21.824C141.264 22.1653 141.424 22.336 141.787 22.336ZM154.506 17.728C155.381 16.2347 156.437 15.488 157.674 15.488C158.378 15.488 158.901 15.7013 159.242 16.128C159.583 16.5333 159.754 16.992 159.754 17.504C159.754 17.9093 159.647 18.24 159.434 18.496C159.242 18.752 158.933 18.88 158.506 18.88C158.165 18.88 157.909 18.8053 157.738 18.656C157.589 18.4853 157.461 18.2933 157.354 18.08C157.269 17.8667 157.162 17.6853 157.034 17.536C156.906 17.3653 156.693 17.28 156.394 17.28C156.01 17.28 155.647 17.5147 155.306 17.984C154.965 18.432 154.677 19.04 154.442 19.808C154.229 20.576 154.122 21.4507 154.122 22.432V29.856C154.122 30.304 154.186 30.624 154.314 30.816C154.463 31.008 154.762 31.1253 155.21 31.168L156.074 31.264C156.309 31.3067 156.426 31.424 156.426 31.616C156.426 31.872 156.266 32 155.946 32H150.538C150.218 32 150.058 31.8827 150.058 31.648C150.058 31.456 150.197 31.328 150.474 31.264L150.858 31.2C151.306 31.1147 151.594 30.9867 151.722 30.816C151.871 30.624 151.946 30.304 151.946 29.856V19.104C151.946 18.72 151.882 18.464 151.754 18.336C151.647 18.1867 151.445 18.0907 151.146 18.048L150.474 17.952C150.197 17.9307 150.058 17.8133 150.058 17.6C150.058 17.4293 150.229 17.312 150.57 17.248C151.231 17.1413 151.733 16.9707 152.074 16.736C152.437 16.5013 152.81 16.2133 153.194 15.872C153.386 15.68 153.546 15.584 153.674 15.584C153.866 15.584 153.962 15.712 153.962 15.968V17.696C153.962 17.8453 154.026 17.9413 154.154 17.984C154.282 18.0053 154.399 17.92 154.506 17.728Z" fill="black"/>
</svg>
