<svg width="171" height="48" viewBox="0 0 171 48" fill="none" xmlns="http://www.w3.org/2000/svg">
<rect width="171" height="48" rx="24" fill="#FF6F00"/>
<path d="M33.0005 24.416C33.0005 23.328 33.2458 22.352 33.7365 21.488C34.2272 20.6133 34.8938 19.9307 35.7365 19.44C36.5898 18.9493 37.5338 18.704 38.5685 18.704C39.7845 18.704 40.8458 18.9973 41.7525 19.584C42.6592 20.1707 43.3205 21.0027 43.7365 22.08H41.9925C41.6832 21.408 41.2352 20.8907 40.6485 20.528C40.0725 20.1653 39.3792 19.984 38.5685 19.984C37.7898 19.984 37.0912 20.1653 36.4725 20.528C35.8538 20.8907 35.3685 21.408 35.0165 22.08C34.6645 22.7413 34.4885 23.52 34.4885 24.416C34.4885 25.3013 34.6645 26.08 35.0165 26.752C35.3685 27.4133 35.8538 27.9253 36.4725 28.288C37.0912 28.6507 37.7898 28.832 38.5685 28.832C39.3792 28.832 40.0725 28.656 40.6485 28.304C41.2352 27.9413 41.6832 27.424 41.9925 26.752H43.7365C43.3205 27.8187 42.6592 28.6453 41.7525 29.232C40.8458 29.808 39.7845 30.096 38.5685 30.096C37.5338 30.096 36.5898 29.856 35.7365 29.376C34.8938 28.8853 34.2272 28.208 33.7365 27.344C33.2458 26.48 33.0005 25.504 33.0005 24.416ZM49.7279 30.144C48.9065 30.144 48.1599 29.9573 47.4879 29.584C46.8265 29.2107 46.3039 28.6827 45.9199 28C45.5465 27.3067 45.3599 26.5067 45.3599 25.6C45.3599 24.704 45.5519 23.9147 45.9359 23.232C46.3305 22.5387 46.8639 22.0107 47.5359 21.648C48.2079 21.2747 48.9599 21.088 49.7919 21.088C50.6239 21.088 51.3759 21.2747 52.0479 21.648C52.7199 22.0107 53.2479 22.5333 53.6319 23.216C54.0265 23.8987 54.2239 24.6933 54.2239 25.6C54.2239 26.5067 54.0212 27.3067 53.6159 28C53.2212 28.6827 52.6825 29.2107 51.9999 29.584C51.3172 29.9573 50.5599 30.144 49.7279 30.144ZM49.7279 28.864C50.2505 28.864 50.7412 28.7413 51.1999 28.496C51.6585 28.2507 52.0265 27.8827 52.3039 27.392C52.5919 26.9013 52.7359 26.304 52.7359 25.6C52.7359 24.896 52.5972 24.2987 52.3199 23.808C52.0425 23.3173 51.6799 22.9547 51.2319 22.72C50.7839 22.4747 50.2985 22.352 49.7759 22.352C49.2425 22.352 48.7519 22.4747 48.3039 22.72C47.8665 22.9547 47.5145 23.3173 47.2479 23.808C46.9812 24.2987 46.8479 24.896 46.8479 25.6C46.8479 26.3147 46.9759 26.9173 47.2319 27.408C47.4985 27.8987 47.8505 28.2667 48.2879 28.512C48.7252 28.7467 49.2052 28.864 49.7279 28.864ZM60.4103 21.072C61.4769 21.072 62.3409 21.3973 63.0023 22.048C63.6636 22.688 63.9943 23.616 63.9943 24.832V30H62.5543V25.04C62.5543 24.1653 62.3356 23.4987 61.8983 23.04C61.4609 22.5707 60.8636 22.336 60.1063 22.336C59.3383 22.336 58.7249 22.576 58.2663 23.056C57.8183 23.536 57.5943 24.2347 57.5943 25.152V30H56.1383V21.232H57.5943V22.48C57.8823 22.032 58.2716 21.6853 58.7623 21.44C59.2636 21.1947 59.8129 21.072 60.4103 21.072ZM68.1486 22.432V27.6C68.1486 28.0267 68.2393 28.3307 68.4206 28.512C68.602 28.6827 68.9166 28.768 69.3646 28.768H70.4366V30H69.1246C68.314 30 67.706 29.8133 67.3006 29.44C66.8953 29.0667 66.6926 28.4533 66.6926 27.6V22.432H65.5566V21.232H66.6926V19.024H68.1486V21.232H70.4366V22.432H68.1486ZM71.6568 25.584C71.6568 24.688 71.8381 23.904 72.2008 23.232C72.5634 22.5493 73.0594 22.0213 73.6888 21.648C74.3288 21.2747 75.0381 21.088 75.8168 21.088C76.5848 21.088 77.2514 21.2533 77.8168 21.584C78.3821 21.9147 78.8034 22.3307 79.0808 22.832V21.232H80.5528V30H79.0808V28.368C78.7928 28.88 78.3608 29.3067 77.7848 29.648C77.2194 29.9787 76.5581 30.144 75.8008 30.144C75.0221 30.144 74.3181 29.952 73.6888 29.568C73.0594 29.184 72.5634 28.6453 72.2008 27.952C71.8381 27.2587 71.6568 26.4693 71.6568 25.584ZM79.0808 25.6C79.0808 24.9387 78.9474 24.3627 78.6808 23.872C78.4141 23.3813 78.0514 23.008 77.5928 22.752C77.1448 22.4853 76.6488 22.352 76.1048 22.352C75.5608 22.352 75.0648 22.48 74.6168 22.736C74.1688 22.992 73.8114 23.3653 73.5448 23.856C73.2781 24.3467 73.1448 24.9227 73.1448 25.584C73.1448 26.256 73.2781 26.8427 73.5448 27.344C73.8114 27.8347 74.1688 28.2133 74.6168 28.48C75.0648 28.736 75.5608 28.864 76.1048 28.864C76.6488 28.864 77.1448 28.736 77.5928 28.48C78.0514 28.2133 78.4141 27.8347 78.6808 27.344C78.9474 26.8427 79.0808 26.2613 79.0808 25.6ZM82.4693 25.6C82.4693 24.6933 82.6506 23.904 83.0133 23.232C83.3759 22.5493 83.8773 22.0213 84.5173 21.648C85.1679 21.2747 85.9093 21.088 86.7413 21.088C87.8186 21.088 88.7039 21.3493 89.3973 21.872C90.1013 22.3947 90.5653 23.12 90.7893 24.048H89.2213C89.0719 23.5147 88.7786 23.0933 88.3413 22.784C87.9146 22.4747 87.3813 22.32 86.7413 22.32C85.9093 22.32 85.2373 22.608 84.7253 23.184C84.2133 23.7493 83.9573 24.5547 83.9573 25.6C83.9573 26.656 84.2133 27.472 84.7253 28.048C85.2373 28.624 85.9093 28.912 86.7413 28.912C87.3813 28.912 87.9146 28.7627 88.3413 28.464C88.7679 28.1653 89.0613 27.7387 89.2213 27.184H90.7893C90.5546 28.08 90.0853 28.8 89.3813 29.344C88.6773 29.8773 87.7973 30.144 86.7413 30.144C85.9093 30.144 85.1679 29.9573 84.5173 29.584C83.8773 29.2107 83.3759 28.6827 83.0133 28C82.6506 27.3173 82.4693 26.5173 82.4693 25.6ZM94.508 22.432V27.6C94.508 28.0267 94.5987 28.3307 94.78 28.512C94.9613 28.6827 95.276 28.768 95.724 28.768H96.796V30H95.484C94.6733 30 94.0653 29.8133 93.66 29.44C93.2547 29.0667 93.052 28.4533 93.052 27.6V22.432H91.916V21.232H93.052V19.024H94.508V21.232H96.796V22.432H94.508ZM101.664 30.144C100.992 30.144 100.389 30.032 99.8561 29.808C99.3228 29.5733 98.9015 29.2533 98.5921 28.848C98.2828 28.432 98.1121 27.9573 98.0801 27.424H99.5841C99.6268 27.8613 99.8295 28.2187 100.192 28.496C100.565 28.7733 101.051 28.912 101.648 28.912C102.203 28.912 102.64 28.7893 102.96 28.544C103.28 28.2987 103.44 27.9893 103.44 27.616C103.44 27.232 103.269 26.9493 102.928 26.768C102.587 26.576 102.059 26.3893 101.344 26.208C100.693 26.0373 100.16 25.8667 99.7441 25.696C99.3388 25.5147 98.9868 25.2533 98.6881 24.912C98.4001 24.56 98.2561 24.1013 98.2561 23.536C98.2561 23.088 98.3895 22.6773 98.6561 22.304C98.9228 21.9307 99.3015 21.6373 99.7921 21.424C100.283 21.2 100.843 21.088 101.472 21.088C102.443 21.088 103.227 21.3333 103.824 21.824C104.421 22.3147 104.741 22.9867 104.784 23.84H103.328C103.296 23.3813 103.109 23.0133 102.768 22.736C102.437 22.4587 101.989 22.32 101.424 22.32C100.901 22.32 100.485 22.432 100.176 22.656C99.8668 22.88 99.7121 23.1733 99.7121 23.536C99.7121 23.824 99.8028 24.064 99.9841 24.256C100.176 24.4373 100.411 24.5867 100.688 24.704C100.976 24.8107 101.371 24.9333 101.872 25.072C102.501 25.2427 103.013 25.4133 103.408 25.584C103.803 25.744 104.139 25.9893 104.416 26.32C104.704 26.6507 104.853 27.0827 104.864 27.616C104.864 28.096 104.731 28.528 104.464 28.912C104.197 29.296 103.819 29.6 103.328 29.824C102.848 30.0373 102.293 30.144 101.664 30.144Z" fill="white"/>
<path d="M136 24L131 19M136 24L131 29M136 24H118" stroke="white" stroke-linecap="round" stroke-linejoin="round"/>
</svg>
