<svg width="168" height="48" viewBox="0 0 168 48" fill="none" xmlns="http://www.w3.org/2000/svg">
<rect x="0.5" y="0.5" width="167" height="47" rx="23.5" stroke="black"/>
<path d="M22.8852 30.112C22.1492 30.112 21.4879 29.984 20.9012 29.728C20.3252 29.4613 19.8719 29.0987 19.5412 28.64C19.2105 28.1707 19.0399 27.632 19.0292 27.024H20.5812C20.6345 27.5467 20.8479 27.9893 21.2212 28.352C21.6052 28.704 22.1599 28.88 22.8852 28.88C23.5785 28.88 24.1225 28.7093 24.5172 28.368C24.9225 28.016 25.1252 27.568 25.1252 27.024C25.1252 26.5973 25.0079 26.2507 24.7732 25.984C24.5385 25.7173 24.2452 25.5147 23.8932 25.376C23.5412 25.2373 23.0665 25.088 22.4692 24.928C21.7332 24.736 21.1412 24.544 20.6932 24.352C20.2559 24.16 19.8772 23.8613 19.5572 23.456C19.2479 23.04 19.0932 22.4853 19.0932 21.792C19.0932 21.184 19.2479 20.6453 19.5572 20.176C19.8665 19.7067 20.2985 19.344 20.8532 19.088C21.4185 18.832 22.0639 18.704 22.7892 18.704C23.8345 18.704 24.6879 18.9653 25.3492 19.488C26.0212 20.0107 26.3999 20.704 26.4852 21.568H24.8852C24.8319 21.1413 24.6079 20.768 24.2132 20.448C23.8185 20.1173 23.2959 19.952 22.6452 19.952C22.0372 19.952 21.5412 20.112 21.1572 20.432C20.7732 20.7413 20.5812 21.1787 20.5812 21.744C20.5812 22.1493 20.6932 22.48 20.9172 22.736C21.1519 22.992 21.4345 23.1893 21.7652 23.328C22.1065 23.456 22.5812 23.6053 23.1892 23.776C23.9252 23.9787 24.5172 24.1813 24.9652 24.384C25.4132 24.576 25.7972 24.88 26.1172 25.296C26.4372 25.7013 26.5972 26.256 26.5972 26.96C26.5972 27.504 26.4532 28.016 26.1652 28.496C25.8772 28.976 25.4505 29.3653 24.8852 29.664C24.3199 29.9627 23.6532 30.112 22.8852 30.112ZM36.7398 25.28C36.7398 25.5573 36.7238 25.8507 36.6918 26.16H29.6838C29.7371 27.024 30.0305 27.7013 30.5638 28.192C31.1078 28.672 31.7638 28.912 32.5318 28.912C33.1611 28.912 33.6838 28.768 34.0998 28.48C34.5265 28.1813 34.8251 27.7867 34.9958 27.296H36.5638C36.3291 28.1387 35.8598 28.8267 35.1558 29.36C34.4518 29.8827 33.5771 30.144 32.5318 30.144C31.6998 30.144 30.9531 29.9573 30.2918 29.584C29.6411 29.2107 29.1291 28.6827 28.7558 28C28.3825 27.3067 28.1958 26.5067 28.1958 25.6C28.1958 24.6933 28.3771 23.8987 28.7398 23.216C29.1025 22.5333 29.6091 22.0107 30.2598 21.648C30.9211 21.2747 31.6785 21.088 32.5318 21.088C33.3638 21.088 34.0998 21.2693 34.7398 21.632C35.3798 21.9947 35.8705 22.496 36.2118 23.136C36.5638 23.7653 36.7398 24.48 36.7398 25.28ZM35.2358 24.976C35.2358 24.4213 35.1131 23.9467 34.8678 23.552C34.6225 23.1467 34.2865 22.8427 33.8598 22.64C33.4438 22.4267 32.9798 22.32 32.4678 22.32C31.7318 22.32 31.1025 22.5547 30.5798 23.024C30.0678 23.4933 29.7745 24.144 29.6998 24.976H35.2358ZM46.6617 25.28C46.6617 25.5573 46.6457 25.8507 46.6137 26.16H39.6057C39.659 27.024 39.9524 27.7013 40.4857 28.192C41.0297 28.672 41.6857 28.912 42.4537 28.912C43.083 28.912 43.6057 28.768 44.0217 28.48C44.4484 28.1813 44.747 27.7867 44.9177 27.296H46.4857C46.251 28.1387 45.7817 28.8267 45.0777 29.36C44.3737 29.8827 43.499 30.144 42.4537 30.144C41.6217 30.144 40.875 29.9573 40.2137 29.584C39.563 29.2107 39.051 28.6827 38.6777 28C38.3044 27.3067 38.1177 26.5067 38.1177 25.6C38.1177 24.6933 38.299 23.8987 38.6617 23.216C39.0244 22.5333 39.531 22.0107 40.1817 21.648C40.843 21.2747 41.6004 21.088 42.4537 21.088C43.2857 21.088 44.0217 21.2693 44.6617 21.632C45.3017 21.9947 45.7924 22.496 46.1337 23.136C46.4857 23.7653 46.6617 24.48 46.6617 25.28ZM45.1577 24.976C45.1577 24.4213 45.035 23.9467 44.7897 23.552C44.5444 23.1467 44.2084 22.8427 43.7817 22.64C43.3657 22.4267 42.9017 22.32 42.3897 22.32C41.6537 22.32 41.0244 22.5547 40.5017 23.024C39.9897 23.4933 39.6964 24.144 39.6217 24.976H45.1577ZM60.3052 22.112C60.3052 23.04 59.9852 23.8133 59.3452 24.432C58.7159 25.04 57.7505 25.344 56.4492 25.344H54.3052V30H52.8492V18.848H56.4492C57.7079 18.848 58.6625 19.152 59.3132 19.76C59.9745 20.368 60.3052 21.152 60.3052 22.112ZM56.4492 24.144C57.2599 24.144 57.8572 23.968 58.2412 23.616C58.6252 23.264 58.8172 22.7627 58.8172 22.112C58.8172 20.736 58.0279 20.048 56.4492 20.048H54.3052V24.144H56.4492ZM63.5708 22.656C63.8268 22.1547 64.1895 21.7653 64.6588 21.488C65.1388 21.2107 65.7201 21.072 66.4028 21.072V22.576H66.0188C64.3868 22.576 63.5708 23.4613 63.5708 25.232V30H62.1148V21.232H63.5708V22.656ZM71.9076 30.144C71.0862 30.144 70.3396 29.9573 69.6676 29.584C69.0062 29.2107 68.4836 28.6827 68.0996 28C67.7262 27.3067 67.5396 26.5067 67.5396 25.6C67.5396 24.704 67.7316 23.9147 68.1156 23.232C68.5102 22.5387 69.0436 22.0107 69.7156 21.648C70.3876 21.2747 71.1396 21.088 71.9716 21.088C72.8036 21.088 73.5556 21.2747 74.2276 21.648C74.8996 22.0107 75.4276 22.5333 75.8116 23.216C76.2062 23.8987 76.4036 24.6933 76.4036 25.6C76.4036 26.5067 76.2009 27.3067 75.7956 28C75.4009 28.6827 74.8622 29.2107 74.1796 29.584C73.4969 29.9573 72.7396 30.144 71.9076 30.144ZM71.9076 28.864C72.4302 28.864 72.9209 28.7413 73.3796 28.496C73.8382 28.2507 74.2062 27.8827 74.4836 27.392C74.7716 26.9013 74.9156 26.304 74.9156 25.6C74.9156 24.896 74.7769 24.2987 74.4996 23.808C74.2222 23.3173 73.8596 22.9547 73.4116 22.72C72.9636 22.4747 72.4782 22.352 71.9556 22.352C71.4222 22.352 70.9316 22.4747 70.4836 22.72C70.0462 22.9547 69.6942 23.3173 69.4276 23.808C69.1609 24.2987 69.0276 24.896 69.0276 25.6C69.0276 26.3147 69.1556 26.9173 69.4116 27.408C69.6782 27.8987 70.0302 28.2667 70.4676 28.512C70.9049 28.7467 71.3849 28.864 71.9076 28.864ZM79.1019 19.808C78.8246 19.808 78.5899 19.712 78.3979 19.52C78.2166 19.328 78.1259 19.0933 78.1259 18.816C78.1259 18.5387 78.2166 18.304 78.3979 18.112C78.5899 17.92 78.8246 17.824 79.1019 17.824C79.3793 17.824 79.6086 17.92 79.7899 18.112C79.9819 18.304 80.0779 18.5387 80.0779 18.816C80.0779 19.0933 79.9819 19.328 79.7899 19.52C79.6086 19.712 79.3793 19.808 79.1019 19.808ZM79.8219 31.904C79.8219 32.6827 79.6246 33.2533 79.2299 33.616C78.8353 33.9787 78.2593 34.16 77.5019 34.16H76.6539V32.928H77.2619C77.6673 32.928 77.9499 32.848 78.1099 32.688C78.2806 32.528 78.3659 32.256 78.3659 31.872V21.232H79.8219V31.904ZM90.2867 25.28C90.2867 25.5573 90.2707 25.8507 90.2387 26.16H83.2307C83.284 27.024 83.5774 27.7013 84.1107 28.192C84.6547 28.672 85.3107 28.912 86.0787 28.912C86.708 28.912 87.2307 28.768 87.6467 28.48C88.0734 28.1813 88.372 27.7867 88.5427 27.296H90.1107C89.876 28.1387 89.4067 28.8267 88.7027 29.36C87.9987 29.8827 87.124 30.144 86.0787 30.144C85.2467 30.144 84.5 29.9573 83.8387 29.584C83.188 29.2107 82.676 28.6827 82.3027 28C81.9294 27.3067 81.7427 26.5067 81.7427 25.6C81.7427 24.6933 81.924 23.8987 82.2867 23.216C82.6494 22.5333 83.156 22.0107 83.8067 21.648C84.468 21.2747 85.2254 21.088 86.0787 21.088C86.9107 21.088 87.6467 21.2693 88.2867 21.632C88.9267 21.9947 89.4174 22.496 89.7587 23.136C90.1107 23.7653 90.2867 24.48 90.2867 25.28ZM88.7827 24.976C88.7827 24.4213 88.66 23.9467 88.4147 23.552C88.1694 23.1467 87.8334 22.8427 87.4067 22.64C86.9907 22.4267 86.5267 22.32 86.0147 22.32C85.2787 22.32 84.6494 22.5547 84.1267 23.024C83.6147 23.4933 83.3214 24.144 83.2467 24.976H88.7827ZM91.6646 25.6C91.6646 24.6933 91.8459 23.904 92.2086 23.232C92.5712 22.5493 93.0726 22.0213 93.7126 21.648C94.3632 21.2747 95.1046 21.088 95.9366 21.088C97.0139 21.088 97.8992 21.3493 98.5926 21.872C99.2966 22.3947 99.7606 23.12 99.9846 24.048H98.4166C98.2672 23.5147 97.9739 23.0933 97.5366 22.784C97.1099 22.4747 96.5766 22.32 95.9366 22.32C95.1046 22.32 94.4326 22.608 93.9206 23.184C93.4086 23.7493 93.1526 24.5547 93.1526 25.6C93.1526 26.656 93.4086 27.472 93.9206 28.048C94.4326 28.624 95.1046 28.912 95.9366 28.912C96.5766 28.912 97.1099 28.7627 97.5366 28.464C97.9632 28.1653 98.2566 27.7387 98.4166 27.184H99.9846C99.7499 28.08 99.2806 28.8 98.5766 29.344C97.8726 29.8773 96.9926 30.144 95.9366 30.144C95.1046 30.144 94.3632 29.9573 93.7126 29.584C93.0726 29.2107 92.5712 28.6827 92.2086 28C91.8459 27.3173 91.6646 26.5173 91.6646 25.6ZM103.703 22.432V27.6C103.703 28.0267 103.794 28.3307 103.975 28.512C104.157 28.6827 104.471 28.768 104.919 28.768H105.991V30H104.679C103.869 30 103.261 29.8133 102.855 29.44C102.45 29.0667 102.247 28.4533 102.247 27.6V22.432H101.111V21.232H102.247V19.024H103.703V21.232H105.991V22.432H103.703ZM110.859 30.144C110.187 30.144 109.585 30.032 109.051 29.808C108.518 29.5733 108.097 29.2533 107.787 28.848C107.478 28.432 107.307 27.9573 107.275 27.424H108.779C108.822 27.8613 109.025 28.2187 109.387 28.496C109.761 28.7733 110.246 28.912 110.843 28.912C111.398 28.912 111.835 28.7893 112.155 28.544C112.475 28.2987 112.635 27.9893 112.635 27.616C112.635 27.232 112.465 26.9493 112.123 26.768C111.782 26.576 111.254 26.3893 110.539 26.208C109.889 26.0373 109.355 25.8667 108.939 25.696C108.534 25.5147 108.182 25.2533 107.883 24.912C107.595 24.56 107.451 24.1013 107.451 23.536C107.451 23.088 107.585 22.6773 107.851 22.304C108.118 21.9307 108.497 21.6373 108.987 21.424C109.478 21.2 110.038 21.088 110.667 21.088C111.638 21.088 112.422 21.3333 113.019 21.824C113.617 22.3147 113.937 22.9867 113.979 23.84H112.523C112.491 23.3813 112.305 23.0133 111.963 22.736C111.633 22.4587 111.185 22.32 110.619 22.32C110.097 22.32 109.681 22.432 109.371 22.656C109.062 22.88 108.907 23.1733 108.907 23.536C108.907 23.824 108.998 24.064 109.179 24.256C109.371 24.4373 109.606 24.5867 109.883 24.704C110.171 24.8107 110.566 24.9333 111.067 25.072C111.697 25.2427 112.209 25.4133 112.603 25.584C112.998 25.744 113.334 25.9893 113.611 26.32C113.899 26.6507 114.049 27.0827 114.059 27.616C114.059 28.096 113.926 28.528 113.659 28.912C113.393 29.296 113.014 29.6 112.523 29.824C112.043 30.0373 111.489 30.144 110.859 30.144Z" fill="black"/>
<path d="M139 24L134 19M139 24L134 29M139 24H121" stroke="black" stroke-linecap="round" stroke-linejoin="round"/>
</svg>
