<svg width="218" height="83" viewBox="0 0 218 83" fill="none" xmlns="http://www.w3.org/2000/svg">
<path d="M25.801 63C25.161 63 24.841 62.7653 24.841 62.296C24.841 61.912 25.1183 61.656 25.673 61.528L27.145 61.272C28.041 61.1013 28.617 60.8667 28.873 60.568C29.1717 60.2693 29.321 59.672 29.321 58.776V21.144C29.321 20.248 29.1717 19.6507 28.873 19.352C28.617 19.0533 28.041 18.8187 27.145 18.648L25.673 18.392C25.1183 18.264 24.841 18.008 24.841 17.624C24.841 17.1547 25.161 16.92 25.801 16.92H39.177C41.6943 16.92 43.913 17.4747 45.833 18.584C47.753 19.6507 49.2463 21.144 50.313 23.064C51.3797 24.984 51.913 27.2027 51.913 29.72C51.913 32.152 51.3797 34.3067 50.313 36.184C49.2463 38.0613 47.7743 39.5333 45.897 40.6C44.0197 41.624 41.8437 42.136 39.369 42.136H34.761C34.1637 42.136 33.865 42.4347 33.865 43.032V58.52C33.865 59.416 34.0357 60.0347 34.377 60.376C34.7183 60.6747 35.4863 60.9307 36.681 61.144L39.049 61.528C39.5183 61.6133 39.753 61.848 39.753 62.232C39.753 62.744 39.433 63 38.793 63H25.801ZM33.865 37.016C33.865 39.3627 35.2943 40.536 38.153 40.536C40.9263 40.536 43.1023 39.5547 44.681 37.592C46.3023 35.6293 47.113 32.9413 47.113 29.528C47.113 26.0293 46.3023 23.32 44.681 21.4C43.0597 19.48 40.7557 18.52 37.769 18.52C35.1663 18.52 33.865 19.3733 33.865 21.08V37.016ZM63.2935 34.456C65.0428 31.4693 67.1548 29.976 69.6295 29.976C71.0375 29.976 72.0828 30.4027 72.7655 31.256C73.4482 32.0667 73.7895 32.984 73.7895 34.008C73.7895 34.8187 73.5762 35.48 73.1495 35.992C72.7655 36.504 72.1468 36.76 71.2935 36.76C70.6108 36.76 70.0988 36.6107 69.7575 36.312C69.4588 35.9707 69.2028 35.5867 68.9895 35.16C68.8188 34.7333 68.6055 34.3707 68.3495 34.072C68.0935 33.7307 67.6668 33.56 67.0695 33.56C66.3015 33.56 65.5762 34.0293 64.8935 34.968C64.2108 35.864 63.6348 37.08 63.1655 38.616C62.7388 40.152 62.5255 41.9013 62.5255 43.864V58.712C62.5255 59.608 62.6535 60.248 62.9095 60.632C63.2082 61.016 63.8055 61.2507 64.7015 61.336L66.4295 61.528C66.8988 61.6133 67.1335 61.848 67.1335 62.232C67.1335 62.744 66.8135 63 66.1735 63H55.3575C54.7175 63 54.3975 62.7653 54.3975 62.296C54.3975 61.912 54.6748 61.656 55.2295 61.528L55.9975 61.4C56.8935 61.2293 57.4695 60.9733 57.7255 60.632C58.0242 60.248 58.1735 59.608 58.1735 58.712V37.208C58.1735 36.44 58.0455 35.928 57.7895 35.672C57.5762 35.3733 57.1708 35.1813 56.5735 35.096L55.2295 34.904C54.6748 34.8613 54.3975 34.6267 54.3975 34.2C54.3975 33.8587 54.7388 33.624 55.4215 33.496C56.7442 33.2827 57.7468 32.9413 58.4295 32.472C59.1548 32.0027 59.9015 31.4267 60.6695 30.744C61.0535 30.36 61.3735 30.168 61.6295 30.168C62.0135 30.168 62.2055 30.424 62.2055 30.936V34.392C62.2055 34.6907 62.3335 34.8827 62.5895 34.968C62.8455 35.0107 63.0802 34.84 63.2935 34.456ZM86.8045 63.576C84.6285 63.576 82.6658 62.8507 80.9165 61.4C79.2098 59.9067 77.8445 57.88 76.8205 55.32C75.7965 52.76 75.2845 49.9013 75.2845 46.744C75.2845 43.5867 75.7965 40.7493 76.8205 38.232C77.8445 35.7147 79.2312 33.7093 80.9805 32.216C82.7298 30.7227 84.6712 29.976 86.8045 29.976C88.9805 29.976 90.9218 30.7227 92.6285 32.216C94.3778 33.7093 95.7645 35.7147 96.7885 38.232C97.8125 40.7493 98.3245 43.5867 98.3245 46.744C98.3245 49.9013 97.8125 52.76 96.7885 55.32C95.8072 57.88 94.4418 59.9067 92.6925 61.4C90.9432 62.8507 88.9805 63.576 86.8045 63.576ZM86.8045 61.976C91.2418 61.976 93.4605 56.8987 93.4605 46.744C93.4605 36.632 91.2418 31.576 86.8045 31.576C82.3672 31.576 80.1485 36.632 80.1485 46.744C80.1485 56.8987 82.3672 61.976 86.8045 61.976ZM107.234 24.28C106.295 24.28 105.527 23.96 104.93 23.32C104.332 22.6373 104.034 21.8267 104.034 20.888C104.034 19.9067 104.332 19.1173 104.93 18.52C105.527 17.88 106.295 17.56 107.234 17.56C108.172 17.56 108.919 17.88 109.474 18.52C110.071 19.1173 110.37 19.9067 110.37 20.888C110.37 21.8693 110.071 22.68 109.474 23.32C108.876 23.96 108.13 24.28 107.234 24.28ZM100.194 76.76C98.9562 76.76 97.9322 76.44 97.1215 75.8C96.3108 75.16 95.9055 74.328 95.9055 73.304C95.9055 72.5787 96.1402 71.9387 96.6095 71.384C97.0362 70.872 97.6335 70.616 98.4015 70.616C99.0842 70.616 99.5748 70.7867 99.8735 71.128C100.172 71.512 100.407 71.9387 100.578 72.408C100.748 72.8773 100.962 73.2827 101.218 73.624C101.516 74.008 101.943 74.2 102.498 74.2C103.308 74.2 103.927 73.7307 104.354 72.792C104.78 71.8533 104.994 70.5307 104.994 68.824V37.208C104.994 36.44 104.866 35.928 104.61 35.672C104.396 35.3733 103.991 35.1813 103.394 35.096L102.049 34.904C101.495 34.8613 101.218 34.6267 101.218 34.2C101.218 33.8587 101.559 33.624 102.242 33.496C103.564 33.2827 104.631 32.9413 105.442 32.472C106.252 32.0027 107.042 31.4267 107.81 30.744C108.194 30.36 108.514 30.168 108.77 30.168C109.154 30.168 109.345 30.424 109.345 30.936V60.184C109.345 65.304 108.514 69.336 106.85 72.28C105.186 75.2667 102.967 76.76 100.194 76.76ZM125.976 63.576C123.928 63.576 122.093 62.8933 120.472 61.528C118.85 60.1627 117.549 58.2427 116.568 55.768C115.629 53.2507 115.16 50.3493 115.16 47.064C115.16 43.6933 115.65 40.728 116.632 38.168C117.613 35.608 118.957 33.6027 120.664 32.152C122.37 30.7013 124.269 29.976 126.36 29.976C128.877 29.976 130.904 31.0213 132.44 33.112C134.018 35.16 134.808 38.5093 134.808 43.16C134.808 44.568 134.274 45.272 133.208 45.272H121.048C120.194 45.272 119.768 45.7627 119.768 46.744C119.768 51.2667 120.429 54.6587 121.752 56.92C123.074 59.1813 124.76 60.312 126.808 60.312C128.429 60.312 129.752 59.736 130.776 58.584C131.8 57.432 132.632 55.4907 133.272 52.76C133.4 52.2907 133.677 52.056 134.104 52.056C134.616 52.056 134.808 52.4827 134.68 53.336C133.997 57.1333 132.909 59.8 131.416 61.336C129.922 62.8293 128.109 63.576 125.976 63.576ZM120.856 43.672H127.32C129.368 43.672 130.392 42.6053 130.392 40.472C130.392 37.6987 130.05 35.5227 129.368 33.944C128.685 32.3653 127.661 31.576 126.296 31.576C124.632 31.576 123.224 32.536 122.072 34.456C120.962 36.376 120.237 39.1067 119.896 42.648C119.81 43.3307 120.13 43.672 120.856 43.672ZM147.958 63.576C146.08 63.576 144.374 62.9573 142.838 61.72C141.344 60.44 140.15 58.6267 139.254 56.28C138.358 53.9333 137.91 51.1387 137.91 47.896C137.91 44.2693 138.443 41.112 139.51 38.424C140.619 35.736 142.112 33.6667 143.99 32.216C145.867 30.7227 147.958 29.976 150.262 29.976C152.224 29.976 153.76 30.36 154.87 31.128C155.296 31.4267 155.51 31.896 155.51 32.536L155.638 40.344C155.638 40.984 155.382 41.304 154.87 41.304C154.4 41.304 154.102 41.0267 153.974 40.472C153.376 38.1253 152.8 36.312 152.246 35.032C151.691 33.752 151.115 32.8773 150.518 32.408C149.92 31.896 149.259 31.64 148.534 31.64C147.68 31.64 146.784 32.1307 145.845 33.112C144.95 34.0933 144.182 35.6933 143.542 37.912C142.944 40.088 142.646 42.968 142.646 46.552C142.646 51.1173 143.222 54.552 144.374 56.856C145.568 59.16 147.104 60.312 148.982 60.312C150.475 60.312 151.712 59.6933 152.694 58.456C153.718 57.2187 154.592 54.9787 155.318 51.736C155.446 51.2667 155.702 51.032 156.086 51.032C156.598 51.032 156.79 51.4587 156.662 52.312C156.192 55.2987 155.531 57.624 154.678 59.288C153.867 60.9093 152.886 62.04 151.734 62.68C150.624 63.2773 149.366 63.576 147.958 63.576ZM167.533 63.576C166.04 63.576 164.802 63.064 163.821 62.04C162.882 60.9733 162.413 59.2453 162.413 56.856V32.92C162.413 32.408 162.157 32.152 161.645 32.152H159.789C159.106 32.152 158.765 31.896 158.765 31.384C158.765 31.0427 158.957 30.744 159.341 30.488C160.749 29.5067 161.88 28.4613 162.733 27.352C163.586 26.2 164.333 24.6427 164.973 22.68C165.272 21.784 165.634 21.336 166.061 21.336C166.53 21.336 166.765 21.6773 166.765 22.36V29.464C166.765 30.0613 167.064 30.36 167.661 30.36H171.821C172.504 30.36 172.845 30.6587 172.845 31.256C172.845 31.8533 172.504 32.152 171.821 32.152H167.661C167.064 32.152 166.765 32.4507 166.765 33.048V56.92C166.765 57.8587 166.914 58.6053 167.213 59.16C167.512 59.672 168.066 59.928 168.877 59.928C169.773 59.928 170.498 59.48 171.053 58.584C171.65 57.688 172.034 56.2373 172.205 54.232C172.29 53.6347 172.568 53.336 173.037 53.336C173.549 53.336 173.805 53.656 173.805 54.296C173.677 57.5813 172.994 59.9493 171.757 61.4C170.562 62.8507 169.154 63.576 167.533 63.576ZM183.072 63.576C182.09 63.576 181.045 63.448 179.936 63.192C178.826 62.9787 177.93 62.7013 177.248 62.36C176.864 62.1467 176.672 61.784 176.672 61.272L176.48 54.104C176.48 53.3787 176.757 53.016 177.312 53.016C177.781 53.016 178.101 53.3573 178.272 54.04C178.997 57.0693 179.872 59.1387 180.896 60.248C181.962 61.3573 183.242 61.912 184.736 61.912C185.973 61.912 186.997 61.4427 187.808 60.504C188.618 59.5227 189.024 58.1787 189.024 56.472C189.024 54.7653 188.554 53.2507 187.616 51.928C186.677 50.6053 185.098 49.1547 182.88 47.576C180.661 46.0827 179.04 44.5893 178.016 43.096C176.992 41.56 176.48 39.896 176.48 38.104C176.48 35.672 177.333 33.7093 179.04 32.216C180.746 30.7227 183.008 29.976 185.824 29.976C186.677 29.976 187.509 30.0827 188.32 30.296C189.13 30.4667 189.856 30.7653 190.496 31.192C190.88 31.448 191.072 31.7893 191.072 32.216L191.2 39.256C191.2 39.896 190.944 40.216 190.432 40.216C190.133 40.216 189.92 40.1307 189.792 39.96C189.664 39.7467 189.557 39.4907 189.472 39.192C188.618 36.4187 187.765 34.4987 186.912 33.432C186.058 32.3227 185.013 31.768 183.776 31.768C182.666 31.768 181.749 32.152 181.024 32.92C180.298 33.688 179.936 34.648 179.936 35.8C179.936 37.2933 180.384 38.5947 181.28 39.704C182.176 40.8133 183.797 42.1787 186.144 43.8C188.277 45.336 189.877 47 190.944 48.792C192.053 50.5413 192.608 52.4613 192.608 54.552C192.608 57.2827 191.733 59.48 189.984 61.144C188.234 62.7653 185.93 63.576 183.072 63.576Z" fill="black"/>
</svg>
